# xmcd CD database file
#
# Track frame offsets:
#	150
#	16957
#	31567
#	41387
#	52350
#	61722
#	76815
#	87705
#	99975
#	107425
#
# Disc length: 1635 seconds
#
# Revision: 1
# Processed by: cddbd v1.5.2PL0 Copyright (c) Steve Scherf et al.
# Submitted via: CDex 1.51
#
DISCID=6c06610a
DTITLE=Bob Dylan - Nashville Skyline
DYEAR=2004
DGENRE=Rock
TTITLE0=Girl From The North Country (with Johnny Cash)
TTITLE1=Nashville Skyline Rag
TTITLE2=To Be Alone With You
TTITLE3=I Threw It All Away
TTITLE4=Peggy Day
TTITLE5=Lay Lady Lay
TTITLE6=One More Night
TTITLE7=Tell Me That It Isn't True
TTITLE8=Country Pie
TTITLE9=Tonight I'll Be Staying Here With You
EXTD=YEAR: 2004
EXTT0=
EXTT1=
EXTT2=
EXTT3=
EXTT4=
EXTT5=
EXTT6=
EXTT7=
EXTT8=
EXTT9=
PLAYORDER=
